{"title":"Sully 2016 HD-TS XviD AC3-NoGroup","uid":15984246,"size":1553362692,"categoryP":"video","categoryS":"movies","magnet":"?xt=urn:btih:f13d3a21601f84ab862492158ee784f499380895&amp;dn=Sully+2016+HD-TS+XviD+AC3-NoGroup&amp;tr=udp%3A%2F%2Ftracker.leechers-paradise.org%3A6969&amp;tr=udp%3A%2F%2Fzer0day.ch%3A1337&amp;tr=udp%3A%2F%2Fopen.demonii.com%3A1337&amp;tr=udp%3A%2F%2Ftracker.coppersurfer.tk%3A6969&amp;tr=udp%3A%2F%2Fexodus.desync.com%3A6969","seeders":31,"leechers":15,"uploader":"makintos13","files":1,"time":1475944223,"description":"Screens:\r\n \nhttps://imgmak.com/awW\r\n \nhttps://imgmak.com/awd\r\n\r\n\r\niMDB: http://www.imdb.com/title/tt3263904/\r\n\r\n\r\nThe story of Chesley Sullenberger, an American pilot who became a hero after landing his damaged plane on the Hudson River in order to save the flight's passengers and crew.\r\n\r\nGeneral\r\nFormat                                   : AVI\r\nFormat/Info                              : Audio Video Interleave\r\nFile size                                : 1.45 GiB\r\nDuration                                 : 1h 28mn\r\nOverall bit rate                         : 2 331 Kbps\r\n\r\nVideo\r\nID                                       : 0\r\nFormat                                   : MPEG-4 Visual\r\nFormat profile                           : Advanced   \r\nFormat settings, BVOP                    : 1\r\nFormat settings, QPel                    : No\r\nFormat settings, GMC                     : No warppoints\r\nFormat settings, Matrix                  : Default (H.263)\r\nMuxing mode                              : Packed bitstream\r\nCodec ID                                 : XVID\r\nCodec ID/Hint                            : XviD\r\nDuration                                 : 1h 28mn\r\nBit rate                                 : 2 130 Kbps\r\nWidth                                    : 720 pixels\r\nHeight                                   : 400 pixels\r\nDisplay aspect ratio                     : 16:9\r\nFrame rate                               : 29.014 fps\r\nColor space                              : YUV\r\nChroma subsampling                       : 4:2:0\r\nBit depth                                : 8 bits\r\nScan type                                : Progressive\r\nCompression mode                         : Lossy\r\nBits/(Pixel*Frame)                       : 0.255\r\nStream size                              : 1.32 GiB (91%)\r\nWriting library                          : XviD 64\r\n\r\nAudio\r\nID                                       : 1\r\nFormat                                   : AC-3\r\nFormat/Info                              : Audio Coding 3\r\nMode extension                           : CM (complete main)\r\nFormat settings, Endianness              : Big\r\nCodec ID                                 : 2000\r\nDuration                                 : 1h 28mn\r\nBit rate mode                            : Constant\r\nBit rate                                 : 192 Kbps\r\nChannel(s)                               : 2 channels\r\nChannel positions                        : Front: L R\r\nSampling rate                            : 48.0 KHz\r\nBit depth                                : 16 bits\r\nCompression mode                         : Lossy\r\nStream size                              : 122 MiB (8%)\r\nAlignment                                : Aligned on interleaves\r\nInterleave, duration                     : 64 ms (1.86 video frames)\r\nInterleave, preload duration             : 192 ms","torrent":{"xt":"urn:btih:f13d3a21601f84ab862492158ee784f499380895","amp;dn":"Sully+2016+HD-TS+XviD+AC3-NoGroup","amp;tr":["udp%3A%2F%2Ftracker.leechers-paradise.org%3A6969","udp%3A%2F%2Fzer0day.ch%3A1337","udp%3A%2F%2Fopen.demonii.com%3A1337","udp%3A%2F%2Ftracker.coppersurfer.tk%3A6969","udp%3A%2F%2Fexodus.desync.com%3A6969"],"infoHash":"f13d3a21601f84ab862492158ee784f499380895","infoHashBuffer":{"type":"Buffer","data":[241,61,58,33,96,31,132,171,134,36,146,21,142,231,132,244,153,56,8,149]},"announce":[],"urlList":[]}}